<svg xmlns="http://www.w3.org/2000/svg" width="24" height="24" viewBox="0 0 24 24" fill="none">
<path d="M15 11.0001H13V7.00012C13 6.73491 12.8946 6.48055 12.7071 6.29302C12.5196 6.10548 12.2652 6.00012 12 6.00012C11.7348 6.00012 11.4804 6.10548 11.2929 6.29302C11.1054 6.48055 11 6.73491 11 7.00012V12.0001C11 12.2653 11.1054 12.5197 11.2929 12.7072C11.4804 12.8948 11.7348 13.0001 12 13.0001H15C15.2652 13.0001 15.5196 12.8948 15.7071 12.7072C15.8946 12.5197 16 12.2653 16 12.0001C16 11.7349 15.8946 11.4806 15.7071 11.293C15.5196 11.1055 15.2652 11.0001 15 11.0001ZM12 2.00012C10.0222 2.00012 8.08879 2.58661 6.4443 3.68543C4.79981 4.78424 3.51809 6.34603 2.76121 8.17329C2.00433 10.0005 1.8063 12.0112 2.19215 13.951C2.578 15.8908 3.53041 17.6727 4.92894 19.0712C6.32746 20.4697 8.10929 21.4221 10.0491 21.808C11.9889 22.1938 13.9996 21.9958 15.8268 21.2389C17.6541 20.482 19.2159 19.2003 20.3147 17.5558C21.4135 15.9113 22 13.9779 22 12.0001C22 10.6869 21.7413 9.38654 21.2388 8.17329C20.7363 6.96003 19.9997 5.85764 19.0711 4.92905C18.1425 4.00047 17.0401 3.26387 15.8268 2.76133C14.6136 2.25878 13.3132 2.00012 12 2.00012V2.00012ZM12 20.0001C10.4178 20.0001 8.87104 19.5309 7.55544 18.6519C6.23985 17.7728 5.21447 16.5234 4.60897 15.0616C4.00347 13.5998 3.84504 11.9912 4.15372 10.4394C4.4624 8.88755 5.22433 7.46209 6.34315 6.34327C7.46197 5.22445 8.88743 4.46252 10.4393 4.15384C11.9911 3.84516 13.5997 4.00358 15.0615 4.60909C16.5233 5.21459 17.7727 6.23997 18.6518 7.55556C19.5308 8.87115 20 10.4179 20 12.0001C20 14.1219 19.1572 16.1567 17.6569 17.657C16.1566 19.1573 14.1217 20.0001 12 20.0001V20.0001Z" fill="#b69d75"/>
</svg>